<svg xmlns="http://www.w3.org/2000/svg" width="478.45" height="511.3"><style>.st1{stroke:#ed1c24;fill:none;stroke-width:3}.st0{fill:#ed1c24}</style><path class="st0" d="M394.71 152.09l58.53 54.63-58.53 54.63zM83.74 261.35L25.2 206.72l58.54-54.63v109.26zM221.86 23.19c9.73-9.09 24.99-9.09 34.73 0l11.95 11.16H209.9zm247.4 178.1c-.01 0-.01-.01-.02-.01l-.04-.04-.01-.01-.01-.01-74.47-69.5V99.17c0-4.11-3.34-7.44-7.45-7.44s-7.45 3.33-7.45 7.44v176.08l-123.22 115c-9.74 9.09-24.99 9.09-34.73 0l-123.23-115V58.24c0-4.96 4.04-9 9-9h263.18c4.96 0 9 4.04 9 9v11.15c0 4.11 3.34 7.44 7.45 7.44s7.45-3.33 7.45-7.44V58.24c0-13.17-10.72-23.89-23.9-23.89h-80.44L266.75 12.3c-15.44-14.4-39.62-14.4-55.05 0l-23.63 22.05h-80.44c-13.17 0-23.89 10.72-23.89 23.89v73.48l-74.48 69.5v.01c-.01 0-.01.01-.02.01l-.03.04c-.01 0-.01.01-.02.01a23.96 23.96 0 00-7.7 17.56v250.6c0 22.25 18.1 40.35 40.35 40.35h34.45c4.12 0 7.45-3.33 7.45-7.45a7.44 7.44 0 00-7.45-7.44H41.84c-14.04 0-25.45-11.42-25.45-25.46V218.87L211.7 401.14c7.72 7.2 17.62 10.8 27.52 10.8 9.91 0 19.81-3.6 27.53-10.8l195.31-182.27v250.59c0 14.03-11.42 25.45-25.45 25.45H106.08c-4.11 0-7.45 3.33-7.45 7.44a7.45 7.45 0 007.45 7.45h330.53c22.24 0 40.34-18.1 40.34-40.34v-250.6c0-6.66-2.8-13.05-7.69-17.57z"/><path class="st1" d="M394.71 152.09l58.53 54.63-58.53 54.63V152.09zM83.74 261.35L25.2 206.72l58.54-54.63v109.26zM221.86 23.19c9.73-9.09 24.99-9.09 34.73 0l11.95 11.16H209.9l11.96-11.16zm247.4 178.1c-.01 0-.01-.01-.02-.01l-.04-.04-.01-.01-.01-.01-74.47-69.5V99.17c0-4.11-3.34-7.44-7.45-7.44s-7.45 3.33-7.45 7.44v176.08l-123.22 115c-9.74 9.09-24.99 9.09-34.73 0l-123.23-115V58.24c0-4.96 4.04-9 9-9h263.18c4.96 0 9 4.04 9 9v11.15c0 4.11 3.34 7.44 7.45 7.44s7.45-3.33 7.45-7.44V58.24c0-13.17-10.72-23.89-23.9-23.89h-80.44L266.75 12.3c-15.44-14.4-39.62-14.4-55.05 0l-23.63 22.05h-80.44c-13.17 0-23.89 10.72-23.89 23.89v73.48l-74.48 69.5v.01c-.01 0-.01.01-.02.01l-.03.04c-.01 0-.01.01-.02.01a23.96 23.96 0 00-7.7 17.56v250.6c0 22.25 18.1 40.35 40.35 40.35h34.45c4.12 0 7.45-3.33 7.45-7.45a7.44 7.44 0 00-7.45-7.44H41.84c-14.04 0-25.45-11.42-25.45-25.46V218.87L211.7 401.14c7.72 7.2 17.62 10.8 27.52 10.8 9.91 0 19.81-3.6 27.53-10.8l195.31-182.27v250.59c0 14.03-11.42 25.45-25.45 25.45H106.08c-4.11 0-7.45 3.33-7.45 7.44a7.45 7.45 0 007.45 7.45h330.53c22.24 0 40.34-18.1 40.34-40.34v-250.6c0-6.66-2.8-13.05-7.69-17.57z"/><path class="st0" d="M345.36 453.01c0-4.96 4.04-9 9-9h65.8c4.96 0 9 4.04 9 9s-4.04 9-9 9h-65.8c-4.96 0-9-4.04-9-9m74.8 23.89c13.17 0 23.89-10.72 23.89-23.89 0-13.18-10.72-23.89-23.89-23.89h-65.8c-13.17 0-23.89 10.71-23.89 23.89 0 13.17 10.72 23.89 23.89 23.89z"/><path class="st1" d="M345.36 453.01c0-4.96 4.04-9 9-9h65.8c4.96 0 9 4.04 9 9s-4.04 9-9 9h-65.8c-4.96 0-9-4.04-9-9zm74.8 23.89c13.17 0 23.89-10.72 23.89-23.89 0-13.18-10.72-23.89-23.89-23.89h-65.8c-13.17 0-23.89 10.71-23.89 23.89 0 13.17 10.72 23.89 23.89 23.89h65.8z"/><path class="st0" d="M239.22 262.21c-4.96 0-9-4.04-9-9 0-4.97 4.04-9 9-9a9 9 0 019 9c0 4.96-4.03 9-9 9m0-32.9c-13.17 0-23.89 10.72-23.89 23.9 0 13.17 10.72 23.89 23.89 23.89 13.18 0 23.9-10.72 23.9-23.89 0-13.18-10.72-23.9-23.9-23.9z"/><path class="st1" d="M239.22 262.21c-4.96 0-9-4.04-9-9 0-4.97 4.04-9 9-9a9 9 0 019 9c0 4.96-4.03 9-9 9zm0-32.9c-13.17 0-23.89 10.72-23.89 23.9 0 13.17 10.72 23.89 23.89 23.89 13.18 0 23.9-10.72 23.9-23.89 0-13.18-10.72-23.9-23.9-23.9z"/><path class="st0" d="M255.13 160.39c-4.19 1.72-6.9 5.88-6.9 10.58v16.44c0 4.97-4.04 9.01-9.01 9.01-4.96 0-9-4.04-9-9.01v-16.44c0-12.04 7.1-22.73 18.07-27.24 9.55-3.91 15.48-13.49 14.77-23.82-.8-11.61-10.52-21.33-22.13-22.13-.57-.04-1.13-.06-1.69-.06-6.1 0-11.84 2.25-16.31 6.43-4.9 4.57-7.6 10.77-7.6 17.47 0 4.96-4.04 9-9 9-4.97 0-9-4.04-9-9 0-11.57 4.85-22.74 13.31-30.64 8.46-7.89 19.96-11.96 31.54-11.16 20.71 1.43 37.41 18.13 38.84 38.85 1.25 18.08-9.16 34.85-25.89 41.72zm7.99 12.76c21.31-9.87 34.39-31.86 32.76-55.51-1.94-28.09-24.59-50.74-52.68-52.68-15.68-1.08-31.26 4.43-42.72 15.14-11.47 10.7-18.05 25.83-18.05 41.52 0 13.17 10.72 23.89 23.9 23.89 13.17 0 23.89-10.72 23.89-23.89 0-2.56.99-4.84 2.86-6.59 1.84-1.71 4.28-2.56 6.83-2.39 4.28.3 8 4.01 8.29 8.29.27 3.92-1.96 7.55-5.56 9.03-16.59 6.81-27.31 22.91-27.31 41.01v16.44c0 13.18 10.72 23.9 23.89 23.9 13.18 0 23.9-10.72 23.9-23.9v-14.26z"/><path class="st1" d="M255.13 160.39c-4.19 1.72-6.9 5.88-6.9 10.58v16.44c0 4.97-4.04 9.01-9.01 9.01-4.96 0-9-4.04-9-9.01v-16.44c0-12.04 7.1-22.73 18.07-27.24 9.55-3.91 15.48-13.49 14.77-23.82-.8-11.61-10.52-21.33-22.13-22.13-.57-.04-1.13-.06-1.69-.06-6.1 0-11.84 2.25-16.31 6.43-4.9 4.57-7.6 10.77-7.6 17.47 0 4.96-4.04 9-9 9-4.97 0-9-4.04-9-9 0-11.57 4.85-22.74 13.31-30.64 8.46-7.89 19.96-11.96 31.54-11.16 20.71 1.43 37.41 18.13 38.84 38.85 1.25 18.08-9.16 34.85-25.89 41.72zm7.99 12.76c21.31-9.87 34.39-31.86 32.76-55.51-1.94-28.09-24.59-50.74-52.68-52.68-15.68-1.08-31.26 4.43-42.72 15.14-11.47 10.7-18.05 25.83-18.05 41.52 0 13.17 10.72 23.89 23.9 23.89 13.17 0 23.89-10.72 23.89-23.89 0-2.56.99-4.84 2.86-6.59 1.84-1.71 4.28-2.56 6.83-2.39 4.28.3 8 4.01 8.29 8.29.27 3.92-1.96 7.55-5.56 9.03-16.59 6.81-27.31 22.91-27.31 41.01v16.44c0 13.18 10.72 23.9 23.89 23.9 13.18 0 23.9-10.72 23.9-23.9v-14.26z"/></svg>