<svg xmlns="http://www.w3.org/2000/svg" width="515" height="482.93"><style>.st1{stroke:#ed1c24;fill:none;stroke-width:3}.st0{fill:#ed1c24}</style><path class="st0" d="M482.46 338.17h-16.55c-4.14 0-7.5 3.36-7.5 7.5 0 4.14 3.36 7.5 7.5 7.5h32.07c.28 0 .52.23.52.52v16.03c0 .29-.24.52-.52.52H17.01c-.28 0-.51-.23-.51-.52v-16.03c0-.29.23-.52.51-.52h416.84c4.14 0 7.5-3.36 7.5-7.5 0-4.14-3.36-7.5-7.5-7.5H32.53V64.59h16.54c4.15 0 7.5-3.36 7.5-7.5 0-4.14-3.35-7.5-7.5-7.5H17.01c-.28 0-.51-.23-.51-.51V17.01c0-.28.23-.51.51-.51h480.97c.28 0 .52.23.52.51v32.07c0 .28-.24.51-.52.51H81.14c-4.14 0-7.5 3.36-7.5 7.5 0 4.14 3.36 7.5 7.5 7.5h401.32zM257.5 466.43c-4.71 0-8.54-3.83-8.54-8.53 0-4.7 3.83-8.53 8.54-8.53 4.7 0 8.53 3.83 8.53 8.53 0 4.7-3.83 8.53-8.53 8.53M497.98 64.59c8.55 0 15.52-6.96 15.52-15.51V17.01c0-8.56-6.97-15.51-15.52-15.51H17.01C8.45 1.5 1.5 8.46 1.5 17.01v32.07c0 8.55 6.95 15.51 15.51 15.51h.52v273.58h-.52c-8.56 0-15.51 6.96-15.51 15.52v16.03c0 8.56 6.95 15.52 15.51 15.52h232.98v50.36c-9.3 3.14-16.03 11.95-16.03 22.3 0 12.98 10.56 23.53 23.54 23.53 12.97 0 23.53-10.55 23.53-23.53 0-10.35-6.73-19.16-16.03-22.3v-50.36h232.98c8.55 0 15.52-6.96 15.52-15.52v-16.03c0-8.56-6.97-15.52-15.52-15.52h-.52V64.59z"/><path class="st1" d="M482.46 338.17h-16.55c-4.14 0-7.5 3.36-7.5 7.5 0 4.14 3.36 7.5 7.5 7.5h32.07c.28 0 .52.23.52.52v16.03c0 .29-.24.52-.52.52H17.01c-.28 0-.51-.23-.51-.52v-16.03c0-.29.23-.52.51-.52h416.84c4.14 0 7.5-3.36 7.5-7.5 0-4.14-3.36-7.5-7.5-7.5H32.53V64.59h16.54c4.15 0 7.5-3.36 7.5-7.5 0-4.14-3.35-7.5-7.5-7.5H17.01c-.28 0-.51-.23-.51-.51V17.01c0-.28.23-.51.51-.51h480.97c.28 0 .52.23.52.51v32.07c0 .28-.24.51-.52.51H81.14c-4.14 0-7.5 3.36-7.5 7.5 0 4.14 3.36 7.5 7.5 7.5h401.32v273.58zM257.5 466.43c-4.71 0-8.54-3.83-8.54-8.53 0-4.7 3.83-8.53 8.54-8.53 4.7 0 8.53 3.83 8.53 8.53 0 4.7-3.83 8.53-8.53 8.53zM497.98 64.59c8.55 0 15.52-6.96 15.52-15.51V17.01c0-8.56-6.97-15.51-15.52-15.51H17.01C8.45 1.5 1.5 8.46 1.5 17.01v32.07c0 8.55 6.95 15.51 15.51 15.51h.52v273.58h-.52c-8.56 0-15.51 6.96-15.51 15.52v16.03c0 8.56 6.95 15.52 15.51 15.52h232.98v50.36c-9.3 3.14-16.03 11.95-16.03 22.3 0 12.98 10.56 23.53 23.54 23.53 12.97 0 23.53-10.55 23.53-23.53 0-10.35-6.73-19.16-16.03-22.3v-50.36h232.98c8.55 0 15.52-6.96 15.52-15.52v-16.03c0-8.56-6.97-15.52-15.52-15.52h-.52V64.59h.52z"/><path class="st0" d="M199 150.59c0-4.9 2.39-9.19 6.56-11.76 2.26-1.4 4.74-2.1 7.24-2.1 2.1 0 4.21.49 6.21 1.49l101.58 50.8c4.79 2.39 7.64 7.01 7.64 12.36s-2.85 9.97-7.64 12.37l-101.58 50.79c-4.39 2.19-9.29 1.97-13.45-.6-4.17-2.58-6.56-6.87-6.56-11.76V150.59zm-1.33 126.11c4.66 2.87 9.89 4.33 15.14 4.33 4.39 0 8.8-1.02 12.91-3.07l101.58-50.8c9.83-4.91 15.94-14.79 15.94-25.78 0-10.98-6.11-20.86-15.94-25.78l-101.58-50.79c-9-4.5-19.49-4.03-28.05 1.26-8.56 5.29-13.67 14.46-13.67 24.52v101.59c0 10.06 5.11 19.22 13.67 24.52z"/><path class="st1" d="M199 150.59c0-4.9 2.39-9.19 6.56-11.76 2.26-1.4 4.74-2.1 7.24-2.1 2.1 0 4.21.49 6.21 1.49l101.58 50.8c4.79 2.39 7.64 7.01 7.64 12.36s-2.85 9.97-7.64 12.37l-101.58 50.79c-4.39 2.19-9.29 1.97-13.45-.6-4.17-2.58-6.56-6.87-6.56-11.76V150.59zm-1.33 126.11c4.66 2.87 9.89 4.33 15.14 4.33 4.39 0 8.8-1.02 12.91-3.07l101.58-50.8c9.83-4.91 15.94-14.79 15.94-25.78 0-10.98-6.11-20.86-15.94-25.78l-101.58-50.79c-9-4.5-19.49-4.03-28.05 1.26-8.56 5.29-13.67 14.46-13.67 24.52v101.59c0 10.06 5.11 19.22 13.67 24.52z"/></svg>