<svg xmlns="http://www.w3.org/2000/svg" width="481" height="480.99"><style>.st1{stroke:#ed1c24;fill:none;stroke-width:1}.st0{fill:#ed1c24}</style><path class="st0" d="M464.5 272.5h-52.91c6.11-19.39-4.64-40.06-24.03-46.17-19.38-6.11-40.05 4.65-46.16 24.03a36.84 36.84 0 000 22.14h-52.9v-52.91a36.453 36.453 0 0032.71-5.22c16.54-11.8 20.39-34.79 8.59-51.33-9.32-13.07-26.04-18.59-41.3-13.64V96.5h176zm0 192h-176v-52.91c19.38 6.11 40.05-4.64 46.16-24.03 6.11-19.38-4.65-40.05-24.03-46.16a36.84 36.84 0 00-22.14 0v-52.9h64c4.42-.01 8-3.59 8-8.01 0-.86-.14-1.71-.41-2.52l-3.35-10.06c-3.58-10.92 2.38-22.66 13.29-26.24 10.92-3.57 22.67 2.38 26.24 13.3a20.74 20.74 0 010 12.94l-3.35 10.06c-1.4 4.19.87 8.72 5.06 10.12.82.27 1.67.41 2.52.41h64v176zm-191.59-66.53c-.28.82-.41 1.67-.41 2.53v64h-176v-176h52.9c-6.11 19.38 4.64 40.05 24.03 46.16 19.38 6.11 40.05-4.65 46.16-24.03a36.84 36.84 0 000-22.14h52.91v64a7.998 7.998 0 0010.52 7.59l10.06-3.35c10.92-3.58 22.66 2.38 26.24 13.29 3.57 10.92-2.38 22.67-13.3 26.24a20.74 20.74 0 01-12.94 0l-10.06-3.35c-4.19-1.4-8.72.87-10.11 5.06M472.5 80.5h-192c-4.42 0-8 3.58-8 8v72c0 4.41 3.58 7.99 8 7.99.86 0 1.71-.14 2.52-.41l10.06-3.35c10.92-3.58 22.66 2.38 26.24 13.29 3.57 10.92-2.38 22.67-13.3 26.24a20.74 20.74 0 01-12.94 0l-10.06-3.35c-4.19-1.4-8.72.87-10.12 5.06-.27.82-.4 1.67-.41 2.53v64h-64c-4.41 0-7.99 3.58-7.99 8 0 .86.14 1.71.41 2.52l3.35 10.06c3.58 10.92-2.38 22.66-13.3 26.24-10.91 3.57-22.66-2.38-26.23-13.3a20.74 20.74 0 010-12.94l3.35-10.06c1.39-4.19-.87-8.72-5.06-10.12-.82-.27-1.67-.4-2.53-.41H88.5c-4.42 0-8 3.59-8 8v192c0 4.42 3.58 8 8 8h384c4.41 0 8-3.58 8-8V88.5c0-4.42-3.59-8-8-8"/><path class="st1" d="M464.5 272.5h-52.91c6.11-19.39-4.64-40.06-24.03-46.17-19.38-6.11-40.05 4.65-46.16 24.03a36.84 36.84 0 000 22.14h-52.9v-52.91a36.453 36.453 0 0032.71-5.22c16.54-11.8 20.39-34.79 8.59-51.33-9.32-13.07-26.04-18.59-41.3-13.64V96.5h176v176zm0 192h-176v-52.91c19.38 6.11 40.05-4.64 46.16-24.03 6.11-19.38-4.65-40.05-24.03-46.16a36.84 36.84 0 00-22.14 0v-52.9h64c4.42-.01 8-3.59 8-8.01 0-.86-.14-1.71-.41-2.52l-3.35-10.06c-3.58-10.92 2.38-22.66 13.29-26.24 10.92-3.57 22.67 2.38 26.24 13.3a20.74 20.74 0 010 12.94l-3.35 10.06c-1.4 4.19.87 8.72 5.06 10.12.82.27 1.67.41 2.52.41h64v176h.01zm-191.59-66.53c-.28.82-.41 1.67-.41 2.53v64h-176v-176h52.9c-6.11 19.38 4.64 40.05 24.03 46.16 19.38 6.11 40.05-4.65 46.16-24.03a36.84 36.84 0 000-22.14h52.91v64a7.998 7.998 0 0010.52 7.59l10.06-3.35c10.92-3.58 22.66 2.38 26.24 13.29 3.57 10.92-2.38 22.67-13.3 26.24a20.74 20.74 0 01-12.94 0l-10.06-3.35c-4.19-1.4-8.72.87-10.11 5.06zM472.5 80.5h-192c-4.42 0-8 3.58-8 8v72c0 4.41 3.58 7.99 8 7.99.86 0 1.71-.14 2.52-.41l10.06-3.35c10.92-3.58 22.66 2.38 26.24 13.29 3.57 10.92-2.38 22.67-13.3 26.24a20.74 20.74 0 01-12.94 0l-10.06-3.35c-4.19-1.4-8.72.87-10.12 5.06-.27.82-.4 1.67-.41 2.53v64h-64c-4.41 0-7.99 3.58-7.99 8 0 .86.14 1.71.41 2.52l3.35 10.06c3.58 10.92-2.38 22.66-13.3 26.24-10.91 3.57-22.66-2.38-26.23-13.3a20.74 20.74 0 010-12.94l3.35-10.06c1.39-4.19-.87-8.72-5.06-10.12-.82-.27-1.67-.4-2.53-.41H88.5c-4.42 0-8 3.59-8 8v192c0 4.42 3.58 8 8 8h384c4.41 0 8-3.58 8-8V88.5c0-4.42-3.59-8-8-8z"/><path class="st0" d="M226.02 124.26a20.74 20.74 0 01-12.94 0l-10.06-3.35c-4.19-1.39-8.72.87-10.12 5.06-.27.82-.4 1.67-.4 2.53v64h-64a7.998 7.998 0 00-7.59 10.52l3.35 10.06c3.58 10.92-2.38 22.66-13.3 26.24-10.91 3.57-22.66-2.38-26.23-13.3a20.74 20.74 0 010-12.94l3.35-10.06c1.39-4.19-.87-8.72-5.06-10.12a8.36 8.36 0 00-2.52-.41h-64V16.5h176v64c0 4.41 3.58 7.99 8 7.99.86 0 1.71-.14 2.52-.41l10.06-3.35c10.92-3.58 22.66 2.38 26.24 13.3 3.57 10.91-2.38 22.66-13.3 26.23m4.61-54.86a36.808 36.808 0 00-22.13 0V8.5c0-4.42-3.59-8-8-8H8.5c-4.42 0-8 3.58-8 8v192c0 4.41 3.58 8 8 8h60.9c-6.11 19.38 4.64 40.05 24.03 46.16 19.38 6.11 40.05-4.65 46.16-24.03a36.84 36.84 0 000-22.14h60.91c4.41 0 8-3.58 8-8v-60.9c19.38 6.11 40.05-4.64 46.16-24.03 6.11-19.38-4.65-40.05-24.03-46.16"/><path class="st1" d="M226.02 124.26a20.74 20.74 0 01-12.94 0l-10.06-3.35c-4.19-1.39-8.72.87-10.12 5.06-.27.82-.4 1.67-.4 2.53v64h-64a7.998 7.998 0 00-7.59 10.52l3.35 10.06c3.58 10.92-2.38 22.66-13.3 26.24-10.91 3.57-22.66-2.38-26.23-13.3a20.74 20.74 0 010-12.94l3.35-10.06c1.39-4.19-.87-8.72-5.06-10.12a8.36 8.36 0 00-2.52-.41h-64V16.5h176v64c0 4.41 3.58 7.99 8 7.99.86 0 1.71-.14 2.52-.41l10.06-3.35c10.92-3.58 22.66 2.38 26.24 13.3 3.57 10.91-2.38 22.66-13.3 26.23zm4.61-54.86a36.808 36.808 0 00-22.13 0V8.5c0-4.42-3.59-8-8-8H8.5c-4.42 0-8 3.58-8 8v192c0 4.41 3.58 8 8 8h60.9c-6.11 19.38 4.64 40.05 24.03 46.16 19.38 6.11 40.05-4.65 46.16-24.03a36.84 36.84 0 000-22.14h60.91c4.41 0 8-3.58 8-8v-60.9c19.38 6.11 40.05-4.64 46.16-24.03 6.11-19.38-4.65-40.05-24.03-46.16z"/></svg>