<svg xmlns="http://www.w3.org/2000/svg" width="421.19" height="497"><style>.st0{fill:#ed1c24}</style><path class="st0" d="M281.47 61.41C276.47 26.4 246 0 210.59 0c-22.78 0-44.4 10.98-57.85 29.4-2.75 3.76-1.93 9.03 1.83 11.77 3.74 2.74 9.02 1.93 11.77-1.83 10.29-14.09 26.83-22.5 44.25-22.5 27.08 0 50.38 20.19 54.2 46.95.6 4.2 4.21 7.23 8.33 7.23.39 0 .8-.03 1.2-.08 4.6-.66 7.8-4.93 7.15-9.53m121.66 94.3l-25.27-42.12a8.408 8.408 0 00-7.22-4.09h-24.22a8.42 8.42 0 00-8.42 8.42c0 4.65 3.77 8.43 8.42 8.43h19.45l15.16 25.27H40.14l15.16-25.27h8.93c4.64 0 8.42-3.78 8.42-8.43s-3.78-8.42-8.42-8.42H50.54c-2.97 0-5.71 1.55-7.23 4.09l-25.27 42.12a8.426 8.426 0 00-.1 8.49 8.405 8.405 0 007.32 4.27h370.65c3.04 0 5.83-1.63 7.33-4.27a8.45 8.45 0 00-.11-8.49"/><path class="st0" d="M361.14 78.04a8.351 8.351 0 00-5.23-3.76L241.07 47.42a8.455 8.455 0 00-6.36 1.04 8.418 8.418 0 00-3.76 5.24l-8.66 37.02c-1.06 4.53 1.75 9.06 6.28 10.11 4.53 1.07 9.07-1.75 10.13-6.28l6.74-28.81 98.42 23.02-15.46 66.13c-1.06 4.53 1.75 9.06 6.28 10.11.65.16 1.29.23 1.93.23 3.83 0 7.29-2.62 8.19-6.51l17.39-74.32a8.4 8.4 0 00-1.05-6.36m-146.1 19.91l-7.67-64.92a8.41 8.41 0 00-3.15-5.62 8.416 8.416 0 00-6.21-1.76L57.12 42.31c-4.62.54-7.92 4.73-7.37 9.35l12.79 108.28c.51 4.28 4.15 7.43 8.36 7.43.33 0 .66-.02 1-.05a8.424 8.424 0 007.37-9.36l-11.8-99.92 124.16-14.67 6.68 56.55c.55 4.62 4.71 7.9 9.36 7.38 4.61-.54 7.92-4.73 7.37-9.35"/><path class="st0" d="M281.66 156.84l-16.72-69.53a8.401 8.401 0 00-3.79-5.21 8.45 8.45 0 00-6.37-1l-135.7 32.63c-4.52 1.09-7.31 5.64-6.22 10.16l8.36 34.76a8.412 8.412 0 0010.15 6.22 8.433 8.433 0 006.23-10.16l-6.39-26.57 119.32-28.69 14.75 61.34c.92 3.86 4.38 6.45 8.18 6.45.66 0 1.32-.08 1.98-.24 4.53-1.08 7.31-5.63 6.22-10.16"/><path class="st0" d="M17.28 480.15l15.99-311.68h354.64l15.98 311.68zm387.05-320.53c-.23-4.48-3.93-8-8.42-8H25.27c-4.49 0-8.18 3.52-8.42 8L.01 488.14c-.11 2.3.71 4.56 2.3 6.23a8.442 8.442 0 006.11 2.62h404.34c2.3 0 4.51-.94 6.11-2.62a8.442 8.442 0 002.31-6.23z"/><path class="st0" d="M273.77 219.01c-4.65 0-8.43-3.78-8.43-8.42 0-4.64 3.78-8.42 8.43-8.42 4.64 0 8.42 3.78 8.42 8.42 0 4.64-3.78 8.42-8.42 8.42m0-33.69c-13.94 0-25.27 11.33-25.27 25.27 0 13.93 11.33 25.27 25.27 25.27 13.93 0 25.27-11.34 25.27-25.27 0-13.94-11.34-25.27-25.27-25.27m-126.36 33.69c-4.64 0-8.42-3.78-8.42-8.42 0-4.64 3.78-8.42 8.42-8.42 4.65 0 8.42 3.78 8.42 8.42 0 4.64-3.77 8.42-8.42 8.42m0-33.69c-13.94 0-25.27 11.33-25.27 25.27 0 13.93 11.33 25.27 25.27 25.27s25.27-11.34 25.27-25.27c0-13.94-11.33-25.27-25.27-25.27"/><path class="st0" d="M273.77 210.59h-.65c-4.65 0-8.43 3.77-8.43 8.42 0 1.15.23 2.25.65 3.25v43.08c0 30.19-24.56 54.75-54.75 54.75s-54.76-24.56-54.76-54.75v-46.33a8.42 8.42 0 00-16.84 0v46.33c0 39.48 32.12 71.6 71.6 71.6s71.6-32.12 71.6-71.6v-46.33a8.42 8.42 0 00-8.42-8.42"/></svg>