<svg xmlns="http://www.w3.org/2000/svg" viewBox="#ed1c24" color="#ed1c24"><path d="M410.5 440L392 384.4c-6.5-19.4-23-33.7-43.1-37.4l-53.5-9.7v-4.1c9.3-5.4 17.4-12.6 23.8-21.2h16.2c13.2 0 24-10.8 24-24v-96c0-57.3-46.7-104-104-104s-104 46.7-104 104v56c0 15.4 11 28.3 25.5 31.3 4.5 23 18.9 42.4 38.5 53.8v4.1L162 347c-20.1 3.7-36.6 18-43.1 37.4l-3.2 9.6-27.2-27.2c-3.1-3.1-3.1-8.2 0-11.3l31.6-31.6-59.3-59.3L25 300.3c-10.6 10.6-16.4 24.6-16.4 39.6s5.8 29 16.4 39.6l108.1 108.1c10.6 10.6 24.6 16.4 39.6 16.4s29-5.8 39.3-16.2l39-35.7-12.1-12.1h171.6zm-67.1-152c0 4.4-3.6 8-8 8h-6.7c2.3-5.3 4.1-10.9 5.2-16.7 3.4-.7 6.6-2.1 9.5-3.8V288zm-8-26.2v-27.6c4.8 2.8 8 7.9 8 13.8s-3.2 11-8 13.8zm-160 0c-4.8-2.8-8-7.9-8-13.8s3.2-11 8-13.8v27.6zm0-53.8v9.1c-2.8.7-5.5 1.9-8 3.3V192c0-48.5 39.5-88 88-88s88 39.5 88 88v28.4c-2.5-1.4-5.2-2.6-8-3.3V208h-8c-23.7 0-45.9-9.2-62.6-25.9l-9.4-9.4-9.4 9.4c-16.7 16.7-39 25.9-62.6 25.9h-8zm16 56v-40.3c24-1.8 46.4-11.7 64-28.4 17.6 16.7 40 26.6 64 28.4V264c0 11.7-3.2 22.6-8.7 32h-55.3v16h42.2c-11.3 9.9-26 16-42.2 16-35.3 0-64-28.7-64-64zm88 76.3v.4l-24 24-24-24v-.4c7.6 2.4 15.6 3.7 24 3.7s16.4-1.3 24-3.7zM134 389.5c4.6-13.9 16.4-24.1 30.8-26.7l55.9-10.2 34.7 34.7 34.7-34.7 55.9 10.2c14.4 2.6 26.2 12.8 30.8 26.7l11.5 34.5H222.9l-31.2-31.2-34.6 31.3c-3 3-8.3 3-11.3 0l-17.5-17.5 5.7-17.1zM60.7 287.2l36.7 36.7-8.7 8.7L52 295.9l8.7-8.7zM201 476.3c-7.6 7.5-17.6 11.7-28.3 11.7s-20.7-4.2-28.3-11.7L36.3 368.2c-7.6-7.6-11.7-17.6-11.7-28.3s4.2-20.7 11.7-28.3l4.4-4.4 36.7 36.7-.3.3c-9.4 9.4-9.4 24.6 0 33.9l57.4 57.4c4.5 4.5 10.6 7 17 7s12.4-2.5 16.7-6.8l.6-.5 36.9 36.9-4.7 4.2zm16.4-15l-36.8-36.8 10.6-9.6 36.7 36.7-10.5 9.7zM479.4 8h-112c-13.2 0-24 10.8-24 24v64c0 13.2 10.8 24 24 24h21.4l-8.3 48.2 77.2-48.2h21.7c13.2 0 24-10.8 24-24V32c0-13.2-10.7-24-24-24zm8 88c0 4.4-3.6 8-8 8h-26.3l-50.8 31.8 5.4-31.8h-40.3c-4.4 0-8-3.6-8-8V32c0-4.4 3.6-8 8-8h112c4.4 0 8 3.6 8 8v64z"/><path d="M375.4 40h96v16h-96zm0 32h64v16h-64zm80 0h16v16h-16zm-200-40c-104.5 0-194.6 72.3-218 173.2l-15.2-25.3-13.7 8.2L36.7 235l46.9-28.1-8.2-13.7-21.7 13C76.3 113.9 159.3 48 255.4 48c21 0 41.8 3.1 61.6 9.3l4.7-15.3c-21.3-6.6-43.6-10-66.3-10zm244.1 153.1L452.7 157l-28.1 46.9 13.7 8.2 14-23.3c7.4 21.6 11.1 44.1 11.1 67.2 0 47.6-16.5 94.1-46.4 131l12.4 10.1c32.2-39.7 50-89.8 50-141 0-24.5-3.9-48.4-11.6-71.2l23.5 14.1 8.2-13.9z"/></svg>