<svg xmlns="http://www.w3.org/2000/svg" viewBox="0 0 512 512"><path d="M337.3 441.1c-2.7 0-5.4-.3-8.1-1.1L83.1 374.2c-16.9-4.6-26.9-22.1-22.5-39l31.1-115.8c1.1-4.2 5.5-6.7 9.7-5.6 4.2 1.1 6.8 5.5 5.6 9.7L76 339.2c-2.2 8.4 2.8 17.2 11.3 19.6l246 65.9c8.5 2.2 17.2-2.8 19.4-11.2l12.4-46.1c1.1-4.2 5.5-6.8 9.8-5.6 4.2 1.1 6.7 5.5 5.6 9.8l-12.4 46c-3.8 14.1-16.7 23.5-30.8 23.5z"/><path d="M409.7 345.6H155c-17.6 0-31.8-14.3-31.8-31.8v-191c0-17.6 14.3-31.8 31.8-31.8h254.7c17.6 0 31.8 14.3 31.8 31.8v191c0 17.5-14.3 31.8-31.8 31.8zM155 106.9c-8.8 0-15.9 7.1-15.9 15.9v191c0 8.8 7.1 15.9 15.9 15.9h254.7c8.8 0 15.9-7.1 15.9-15.9v-191c0-8.8-7.1-15.9-15.9-15.9H155z"/><path d="M202.8 202.4c-17.6 0-31.8-14.3-31.8-31.8s14.3-31.8 31.8-31.8 31.8 14.3 31.8 31.8-14.3 31.8-31.8 31.8zm0-47.8c-8.8 0-15.9 7.1-15.9 15.9s7.1 15.9 15.9 15.9 15.9-7.1 15.9-15.9c0-8.7-7.2-15.9-15.9-15.9zm-70.6 174c-2 0-4.1-.8-5.6-2.3-3.1-3.1-3.1-8.1 0-11.3l75.2-75.2c9-9 24.8-9 33.8 0l22.4 22.4 62-74.3c4.5-5.4 11.1-8.5 18.2-8.6h.2c7 0 13.6 3 18.1 8.3l83.2 97.1c2.9 3.3 2.5 8.4-.9 11.2-3.3 2.9-8.3 2.5-11.2-.9l-83.2-97.1a7.79 7.79 0 00-6-2.8c-1.7-.1-4.6 1-6.1 2.9l-67.5 81c-1.4 1.7-3.5 2.8-5.8 2.8-2.3.2-4.4-.7-6-2.3L224.5 251c-3-3-8.2-3-11.3 0L138 326.2c-1.7 1.6-3.7 2.4-5.8 2.4z"/></svg>