<svg xmlns="http://www.w3.org/2000/svg" width="472.7" height="512"><path d="M106.93 512c-27.38 0-54.77-10.43-75.61-31.27C11.12 460.53 0 433.67 0 405.11c0-28.56 11.12-55.42 31.32-75.61L337.64 23.17C352.59 8.22 372.45 0 393.58 0c21.14 0 41 8.22 55.94 23.17 14.95 14.94 23.18 34.81 23.18 55.94 0 21.13-8.23 40.99-23.18 55.94L184.78 399.79c-19.99 19.99-52.53 19.99-72.53 0-19.99-20-19.99-52.54 0-72.53l186.24-186.24c5.48-5.48 14.36-5.48 19.84 0 5.48 5.47 5.48 14.36 0 19.84L132.09 347.1c-9.06 9.05-9.06 23.79 0 32.85 9.06 9.06 23.8 9.06 32.85 0l264.75-264.74c9.64-9.65 14.95-22.47 14.95-36.1 0-13.64-5.31-26.46-14.95-36.1-19.91-19.91-52.3-19.91-72.21 0L51.15 349.33c-14.89 14.9-23.1 34.71-23.1 55.78s8.21 40.88 23.1 55.78c30.76 30.75 80.8 30.75 111.55 0l228.45-228.45c5.48-5.48 14.36-5.48 19.84 0s5.48 14.36 0 19.84L182.54 480.73C161.7 501.57 134.31 512 106.93 512z" fill="#0a0a0a"/></svg>